# xmcd
#
# Track frame offsets:
#	180
#	27510
#	43414
#	58899
#	79439
#	93738
#	127641
#	142645
#	162717
#	182742
#	202775
#	229253
#
# Disc length: 3293 seconds
#
# Revision: 0
# Processed by: cddbd v1.5.2PL0 Copyright (c) Steve Scherf et al.
# Submitted via: dBpowerAMP V4.0
#
DISCID=a70cdb0c
DTITLE=Defenders Of The Faith - Original Sins
DYEAR=1997
DGENRE=Blues
TTITLE0=Why Should I Think That?
TTITLE1=Julia
TTITLE2=It's A Shame
TTITLE3=Funkey Kind Of Love
TTITLE4=All Night
TTITLE5=Too Many Goodbyes
TTITLE6=No Love In You
TTITLE7=Weekend
TTITLE8=Sandy
TTITLE9=Night Train
TTITLE10=Backslider
TTITLE11=Julia (Bonus Track)
EXTD=This is a self-produced blues album recorded in 1997. \nIt was Produced by Glenn Reynolds, Douglas C. Weinstein \nand Jonathan Reynolds.
EXTT0=
EXTT1=
EXTT2=
EXTT3=
EXTT4=
EXTT5=
EXTT6=
EXTT7=
EXTT8=
EXTT9=
EXTT10=
EXTT11=
PLAYORDER=
